<mxfile host="app.diagrams.net" modified="2024-07-18T10:46:17.184Z" agent="Mozilla/5.0 (X11; Linux x86_64; rv:128.0) Gecko/20100101 Firefox/128.0" version="24.7.1" etag="c3h_qqsDsdAK7fRHR1AP" type="github">
  <diagram name="Page-1" id="c7R8uGRddL00JjoND-lU">
    <mxGraphModel>
      <root>
        <mxCell id="0" />
        <mxCell id="1" parent="0" />
      </root>
    </mxGraphModel>
  </diagram>
</mxfile>
